#!OML:ASF F:\VICON\USERDATA\INSTALL\rory3\rory3.ASF
:FULLY-SPECIFIED
:DEGREES
1280
root 2.6432 17.9231 12.9507 -168.409 -59.7472 175.713
lowerback 2.86224 -2.9716 -5.90768
upperback 0.278965 -4.13315 2.50296
thorax -0.711817 -2.0608 6.03251
lowerneck -15.2711 -2.06001 -11.5667
upperneck 39.0147 -3.23936 2.81128
head 17.0244 -3.53022 2.45563
rclavicle -4.35338e-014 -6.36111e-015
rhumerus -34.9044 -13.5647 -72.2973
rradius 25.675
rwrist 25.4015
rhand -20.7734 2.33684
rfingers 7.12502
rthumb 5.59315 -27.5693
lclavicle -4.35338e-014 -6.36111e-015
lhumerus -29.3362 0.224149 84.5158
lradius 40.4476
lwrist -3.43544
lhand -10.9374 24.7037
lfingers 7.12502
lthumb 15.0808 54.1344
rfemur -14.2963 0.581144 21.3636
rtibia 28.6286
rfoot -21.8466 -9.039
rtoes 13.2081
lfemur -15.4212 14.3499 -20.9527
ltibia 31.2202
lfoot -6.56995 25.911
ltoes -22.808
1281
root 2.64983 17.9226 12.9422 -168.368 -59.5983 175.685
lowerback 2.82577 -2.91859 -5.76883
upperback 0.388688 -4.05575 2.44114
thorax -0.60347 -2.02919 5.88165
lowerneck -15.0707 -1.85084 -11.4195
upperneck 38.9829 -2.92946 2.63622
head 16.9151 -3.40853 2.40998
rclavicle 4.96962e-015 -1.98785e-014
rhumerus -34.6362 -13.2293 -72.6033
rradius 26.0166
rwrist 25.156
rhand -20.6177 2.11636
rfingers 7.12502
rthumb 5.74343 -27.7858
lclavicle 4.96962e-015 -1.98785e-014
lhumerus -29.1711 0.577769 84.4041
lradius 40.1075
lwrist -3.63783
lhand -11.0966 25.2104
lfingers 7.12502
lthumb 14.9274 54.6525
rfemur -14.2744 0.500356 21.3718
rtibia 28.445
rfoot -21.5665 -8.9559
rtoes 13.2021
lfemur -15.9024 14.7948 -20.9346
ltibia 31.9696
lfoot -6.00302 25.4693
ltoes -23.6135
1282
root 2.65882 17.9219 12.9354 -168.423 -59.4557 175.747
lowerback 2.84545 -2.86599 -5.62508
upperback 0.503735 -3.98224 2.4067
thorax -0.518464 -1.99892 5.76029
lowerneck -14.9451 -1.66709 -11.3514
upperneck 38.9966 -2.64556 2.51094
head 16.8571 -3.30398 2.39481
rclavicle 2.37548e-014 8.34896e-015
rhumerus -34.3924 -12.8537 -72.9324
rradius 26.4168
rwrist 24.6631
rhand -20.5214 2.08384
rfingers 7.12502
rthumb 5.83643 -27.8158
lclavicle 2.37548e-014 8.34896e-015
lhumerus -29.0288 0.888899 84.2153
lradius 39.6827
lwrist -3.77613
lhand -11.1365 25.1797
lfingers 7.12502
lthumb 14.889 54.6247
rfemur -14.2417 0.57666 21.4233
rtibia 28.2704
rfoot -21.0794 -8.8822
rtoes 13.3414
lfemur -16.3359 14.9365 -20.8328
ltibia 32.6914
lfoot -5.85378 25.1524
ltoes -23.4698
1283
root 2.66708 17.9236 12.9278 -168.448 -59.2741 175.744
lowerback 2.89051 -2.79465 -5.54124
upperback 0.627053 -3.88716 2.39512
thorax -0.436078 -1.95805 5.69775
lowerneck -14.9364 -1.50694 -11.4199
upperneck 39.1503 -2.36434 2.40847
head 16.9107 -3.22739 2.41178
rclavicle -2.98177e-015 -8.34896e-015
rhumerus -34.1079 -12.5544 -73.1572
rradius 26.8148
rwrist 24.0881
rhand -20.4073 2.19516
rfingers 7.12502
rthumb 5.94659 -27.7014
lclavicle -2.98177e-015 -8.34896e-015
lhumerus -28.8669 1.14338 84.0714
lradius 39.1477
lwrist -3.83876
lhand -11.0066 24.83
lfingers 7.12502
lthumb 15.0141 54.2657
rfemur -14.1653 0.826069 21.4303
rtibia 28.1066
rfoot -21.3971 -8.97266
rtoes 13.9888
lfemur -16.6485 14.9405 -20.6949
ltibia 33.3673
lfoot -6.1155 24.7671
ltoes -22.0581
1284
root 2.67229 17.9259 12.9228 -168.451 -59.1132 175.757
lowerback 2.88487 -2.71302 -5.40255
upperback 0.718872 -3.77418 2.37352
thorax -0.364375 -1.90654 5.59163
lowerneck -14.8205 -1.33314 -11.3782
upperneck 39.2717 -2.09068 2.24042
head 16.9173 -3.14663 2.37834
rclavicle 1.15295e-013 -2.62396e-014
rhumerus -33.8636 -12.0651 -73.4246
rradius 27.2158
rwrist 23.4428
rhand -20.45 2.22798
rfingers 7.12502
rthumb 5.90535 -27.6697
lclavicle 1.15295e-013 -2.62396e-014
lhumerus -28.7534 1.16314 84.0436
lradius 38.6245
lwrist -3.73869
lhand -11.2203 25.0254
lfingers 7.12502
lthumb 14.8083 54.4764
rfemur -14.1116 0.930323 21.4372
rtibia 27.9187
rfoot -20.8991 -9.12429
rtoes 13.1939
lfemur -16.9811 14.9772 -20.5634
ltibia 33.9967
lfoot -6.41503 24.2552
ltoes -20.1883
1285
root 2.67385 17.9331 12.9196 -168.425 -58.947 175.728
lowerback 2.88987 -2.68556 -5.27514
upperback 0.800351 -3.73453 2.34935
thorax -0.298387 -1.89112 5.49126
lowerneck -14.691 -1.12531 -11.3285
upperneck 39.3109 -1.74024 2.03127
head 16.869 -3.03318 2.33857
rclavicle -7.05686e-015 -1.59028e-015
rhumerus -33.6492 -11.3793 -73.7647
rradius 27.6987
rwrist 22.9997
rhand -20.6703 2.1504
rfingers 7.12502
rthumb 5.69267 -27.7531
lclavicle -7.05686e-015 -1.59028e-015
lhumerus -28.7198 1.30067 83.971
lradius 38.1384
lwrist -3.69123
lhand -11.5332 25.3481
lfingers 7.12502
lthumb 14.5068 54.8209
rfemur -14.059 0.965498 21.4001
rtibia 27.7637
rfoot -21.1758 -8.96289
rtoes 13.8515
lfemur -17.2925 14.969 -20.498
ltibia 34.5609
lfoot -6.47044 23.7323
ltoes -18.7115
1286
root 2.67737 17.9394 12.9141 -168.458 -58.8082 175.675
lowerback 3.04572 -2.66084 -5.14113
upperback 0.859385 -3.70543 2.27451
thorax -0.342333 -1.87633 5.34394
lowerneck -14.5727 -0.91388 -11.3008
upperneck 39.4338 -1.42084 1.89574
head 16.8733 -2.93363 2.32913
rclavicle 5.08889e-014 -1.70955e-014
rhumerus -33.4849 -10.8562 -74.1014
rradius 28.1658
rwrist 22.7717
rhand -20.6682 2.25867
rfingers 7.12502
rthumb 5.6947 -27.6448
lclavicle 5.08889e-014 -1.70955e-014
lhumerus -28.781 1.43759 83.78
lradius 37.6945
lwrist -3.80741
lhand -11.4287 25.3651
lfingers 7.12502
lthumb 14.6075 54.8307
rfemur -13.9218 1.01902 21.3702
rtibia 27.6398
rfoot -21.0767 -9.00748
rtoes 13.9244
lfemur -17.4396 14.7195 -20.3618
ltibia 35.0718
lfoot -6.81038 23.0393
ltoes -16.2277
1287
root 2.68117 17.9407 12.909 -168.428 -58.659 175.601
lowerback 3.13383 -2.58514 -5.02559
upperback 0.919283 -3.6055 2.22581
thorax -0.353363 -1.82732 5.22917
lowerneck -14.5141 -0.74956 -11.4335
upperneck 39.6763 -1.18607 1.90593
head 16.9702 -2.88151 2.39792
rclavicle -3.56818e-014 7.55382e-015
rhumerus -33.2766 -10.432 -74.3003
rradius 28.6135
rwrist 22.3882
rhand -20.5772 2.45438
rfingers 7.12502
rthumb 5.78257 -27.4467
lclavicle -3.56818e-014 7.55382e-015
lhumerus -28.7661 1.49637 83.6902
lradius 37.1348
lwrist -4.14368
lhand -11.2973 25.3165
lfingers 7.12502
lthumb 14.7341 54.7728
rfemur -13.8548 1.00054 21.3194
rtibia 27.544
rfoot -20.9609 -8.84915
rtoes 14.0774
lfemur -17.6423 14.5862 -20.2468
ltibia 35.5276
lfoot -6.92211 21.9201
ltoes -14.504
1288
root 2.68448 17.9418 12.9074 -168.344 -58.5545 175.51
lowerback 3.18704 -2.54564 -4.95279
upperback 0.993784 -3.55379 2.21848
thorax -0.317872 -1.80475 5.17996
lowerneck -14.4964 -0.595718 -11.6437
upperneck 39.8554 -0.93667 1.95779
head 17.0429 -2.8227 2.50257
rclavicle 6.38099e-014 -6.75868e-015
rhumerus -32.9866 -10.0509 -74.4559
rradius 29.038
rwrist 22.1777
rhand -20.5586 2.51912
rfingers 7.12502
rthumb 5.8005 -27.3815
lclavicle 6.38099e-014 -6.75868e-015
lhumerus -28.738 1.5769 83.6828
lradius 36.6471
lwrist -4.40275
lhand -11.274 25.4168
lfingers 7.12502
lthumb 14.7566 54.8715
rfemur -13.8493 0.950192 21.2606
rtibia 27.4785
rfoot -20.8395 -8.72096
rtoes 14.1339
lfemur -17.9348 14.5068 -20.1936
ltibia 35.9346
lfoot -6.74732 20.6095
ltoes -13.6724
1289
root 2.68698 17.9427 12.9038 -168.361 -58.5083 175.517
lowerback 3.22752 -2.54828 -4.8885
upperback 1.08995 -3.55848 2.2398
thorax -0.243339 -1.8126 5.16501
lowerneck -14.482 -0.421692 -11.6063
upperneck 39.9719 -0.612249 1.72109
head 17.0732 -2.73082 2.44543
rclavicle -8.05078e-015 3.97569e-015
rhumerus -32.7046 -9.48106 -74.7173
rradius 29.5251
rwrist 21.8286
rhand -20.8378 2.43526
rfingers 7.12502
rthumb 5.53097 -27.4726
lclavicle -8.05078e-015 3.97569e-015
lhumerus -28.6967 1.72588 83.6232
lradius 36.102
lwrist -4.64978
lhand -11.2319 25.4562
lfingers 7.12502
lthumb 14.7971 54.908
rfemur -13.8364 1.13025 21.2766
rtibia 27.487
rfoot -20.9207 -8.83681
rtoes 14.2255
lfemur -18.149 14.144 -20.0265
ltibia 36.2697
lfoot -6.93169 19.2462
ltoes -12.6425
1290
root 2.68822 17.9402 12.9024 -168.456 -58.399 175.626
lowerback 3.22705 -2.53919 -4.82498
upperback 1.18797 -3.5463 2.31018
thorax -0.142864 -1.81329 5.19903
lowerneck -14.3942 -0.223259 -11.4199
upperneck 40.0063 -0.232808 1.30488
head 17.0366 -2.61322 2.2897
rclavicle -1.04561e-013 5.96354e-015
rhumerus -32.373 -8.89637 -74.8981
rradius 29.9932
rwrist 21.3287
rhand -20.9474 2.44209
rfingers 7.12502
rthumb 5.42514 -27.4685
lclavicle -1.04561e-013 5.96354e-015
lhumerus -28.6189 2.11006 83.5706
lradius 35.4599
lwrist -5.11694
lhand -11.1195 25.5691
lfingers 7.12502
lthumb 14.9054 55.0128
rfemur -13.8885 1.23183 21.3332
rtibia 27.5792
rfoot -21.0163 -8.80412
rtoes 14.2828
lfemur -18.3015 13.6383 -19.7604
ltibia 36.5057
lfoot -7.68865 17.8719
ltoes -11.6623
1291
root 2.6885 17.9383 12.9063 -168.371 -58.2498 175.581
lowerback 3.22017 -2.51335 -4.79751
upperback 1.24306 -3.51184 2.34386
thorax -0.0860399 -1.79982 5.21584
lowerneck -14.2848 -0.00652706 -11.3082
upperneck 40.0555 0.10907 1.10377
head 17.0054 -2.49333 2.23834
rclavicle -2.8625e-014 -2.66371e-014
rhumerus -32.035 -8.38885 -75.0119
rradius 30.4731
rwrist 20.9376
rhand -20.7055 2.45901
rfingers 7.12502
rthumb 5.65865 -27.4454
lclavicle -2.8625e-014 -2.66371e-014
lhumerus -28.5783 2.46087 83.5312
lradius 34.8218
lwrist -5.61558
lhand -11.0457 25.6634
lfingers 7.12502
lthumb 14.9765 55.1019
rfemur -14.0193 1.19567 21.2763
rtibia 27.6814
rfoot -20.9545 -8.72536
rtoes 14.0346
lfemur -18.4717 13.0227 -19.6167
ltibia 36.647
lfoot -8.71028 16.5575
ltoes -10.8278
1292
root 2.68809 17.9339 12.9152 -168.021 -58.0808 175.243
lowerback 3.26377 -2.47683 -4.83197
upperback 1.24693 -3.46555 2.28192
thorax -0.114094 -1.77539 5.17216
lowerneck -14.2617 0.209283 -11.2521
upperneck 40.2908 0.404744 1.03346
head 17.1025 -2.3998 2.24665
rclavicle 5.26779e-015 -3.97569e-015
rhumerus -31.8098 -7.98287 -75.1264
rradius 31.0231
rwrist 20.681
rhand -20.5916 2.41924
rfingers 7.12502
rthumb 5.7687 -27.4822
lclavicle 5.26779e-015 -3.97569e-015
lhumerus -28.6034 2.64005 83.4735
lradius 34.1849
lwrist -6.17634
lhand -10.8909 25.4821
lfingers 7.12502
lthumb 15.1256 54.9094
rfemur -14.1229 1.16491 21.02
rtibia 27.6504
rfoot -20.5026 -8.58397
rtoes 13.9681
lfemur -18.6843 12.3806 -19.7241
ltibia 36.7224
lfoot -9.44355 15.2202
ltoes -11.9814
1293
root 2.68468 17.936 12.9227 -167.892 -57.9238 175.139
lowerback 3.29635 -2.40968 -4.73529
upperback 1.27905 -3.37484 2.25491
thorax -0.118032 -1.73026 5.08842
lowerneck -14.1905 0.357239 -11.1675
upperneck 40.4868 0.631449 0.832408
head 17.177 -2.34532 2.1775
rclavicle 2.46493e-014 -2.46493e-014
rhumerus -31.6255 -7.52961 -75.2204
rradius 31.5456
rwrist 20.3264
rhand -20.9417 2.51479
rfingers 7.12502
rthumb 5.43061 -27.3956
lclavicle 2.46493e-014 -2.46493e-014
lhumerus -28.6421 2.68337 83.4918
lradius 33.6141
lwrist -6.61914
lhand -10.6799 25.1743
lfingers 7.12502
lthumb 15.3288 54.5861
rfemur -14.268 1.23678 20.8968
rtibia 27.8183
rfoot -20.919 -8.49338
rtoes 14.1577
lfemur -18.9148 11.8633 -19.7126
ltibia 36.6275
lfoot -9.75017 13.5172
ltoes -14.0961
1294
root 2.67774 17.9619 12.9258 -167.98 -57.7962 175.253
lowerback 3.34501 -2.3284 -4.53581
upperback 1.31061 -3.26326 2.26097
thorax -0.137675 -1.67422 4.98136
lowerneck -14.0122 0.509418 -11.0333
upperneck 40.6411 0.85747 0.56102
head 17.2036 -2.29125 2.06627
rclavicle 4.05521e-014 -1.98785e-014
rhumerus -31.4823 -7.21745 -75.2691
rradius 32.0572
rwrist 19.9893
rhand -21.2159 2.48417
rfingers 7.12502
rthumb 5.16592 -27.4329
lclavicle 4.05521e-014 -1.98785e-014
lhumerus -28.6964 2.76229 83.5253
lradius 33.0248
lwrist -7.00211
lhand -10.697 25.0638
lfingers 7.12502
lthumb 15.3124 54.477
rfemur -14.3546 1.43615 20.9031
rtibia 28.0058
rfoot -19.8721 -7.74223
rtoes 18.3721
lfemur -19.2305 11.2904 -19.528
ltibia 36.4236
lfoot -9.96399 11.5701
ltoes -15.3504
